# xmcd
#
# Track frame offsets:
#	150
#	16322
#	35053
#	47686
#	70391
#	86667
#	99383
#	110794
#	129063
#	143564
#
# Disc length: 2197 seconds
# Revision: 0
# Processed by: cddbd v1.5.2PL0 Copyright (c) Steve Scherf et al.
# Submitted via: dBpowerAMP V12.0
#
DISCID=8208930a
DTITLE=FY5 - The Way These Things Go
DYEAR=2018
DGENRE=Bluegrass
TTITLE0=White Colored Pencil
TTITLE1=Coeur d'Alene
TTITLE2=Even If You Never Call Me Back
TTITLE3=That's Why I Don't Sing Love Songs Anymore
TTITLE4=Charlie Schumacher
TTITLE5=That First Stone
TTITLE6=Waitress' Waltz
TTITLE7=I've Been in Love Before
TTITLE8=No Other Heart's as True as Mine
TTITLE9=It Leaves a Groove
EXTD=
EXTT0=
EXTT1=
EXTT2=
EXTT3=
EXTT4=
EXTT5=
EXTT6=
EXTT7=
EXTT8=
EXTT9=
PLAYORDER=
